<svg width="24" height="24" viewBox="0 0 24 24" fill="none" xmlns="http://www.w3.org/2000/svg">
<g clip-path="url(#clip0_1038_8354)">
<g clip-path="url(#clip1_1038_8354)">
<path d="M13.1814 13.507C13.045 13.6428 12.9367 13.8043 12.8629 13.9821C12.789 14.1599 12.751 14.3505 12.751 14.543C12.751 14.7356 12.789 14.9262 12.8629 15.104C12.9367 15.2818 13.045 15.4432 13.1814 15.5791C13.3051 15.6993 13.4496 15.7961 13.6079 15.8646L15.572 15.0935C15.6974 14.7808 15.7113 14.4344 15.6111 14.1127C15.511 13.791 15.3031 13.5137 15.0223 13.3274C14.7416 13.1411 14.4053 13.0572 14.0699 13.0899C13.7346 13.1227 13.4208 13.2699 13.1814 13.507Z" fill="#FFF7F7"/>
<path d="M12.9052 10.1696C13.0699 10.0049 13.182 9.79504 13.2274 9.56659C13.2729 9.33813 13.2495 9.10134 13.1604 8.88616C13.0712 8.67097 12.9203 8.48704 12.7266 8.35765C12.5329 8.22825 12.3052 8.15918 12.0723 8.15918C11.8394 8.15918 11.6117 8.22825 11.418 8.35765C11.2243 8.48704 11.0734 8.67097 10.9842 8.88616C10.8951 9.10134 10.8717 9.33813 10.9171 9.56659C10.9626 9.79504 11.0747 10.0049 11.2394 10.1696C11.3487 10.279 11.4786 10.3658 11.6215 10.425C11.7644 10.4842 11.9176 10.5147 12.0723 10.5147C12.227 10.5147 12.3802 10.4842 12.5231 10.425C12.666 10.3658 12.7958 10.279 12.9052 10.1696Z" fill="#FFF7F7"/>
<path d="M12.5318 16.2308C12.2481 15.9483 12.0401 15.599 11.927 15.2149C11.8138 14.8309 11.7993 14.4246 11.8847 14.0334C11.97 13.6423 12.1525 13.2789 12.4153 12.9769C12.6782 12.6749 13.0128 12.444 13.3884 12.3055C13.7641 12.1669 14.1685 12.1253 14.5645 12.1843C14.9605 12.2433 15.3352 12.4011 15.6541 12.6431C15.973 12.8852 16.2258 13.2036 16.3891 13.5691C16.5525 13.9347 16.6211 14.3354 16.5887 14.7345L19.1354 13.733C19.0747 13.4756 18.4655 11.1434 15.7433 8.42512C13.0211 5.70682 10.6932 5.09192 10.4332 5.03125L7.9879 11.2544C8.35951 11.283 8.71922 11.3984 9.03814 11.5912C9.35706 11.7841 9.62631 12.0491 9.82424 12.3649C10.0222 12.6807 10.1433 13.0385 10.1778 13.4096C10.2124 13.7807 10.1595 14.1548 10.0232 14.5017C9.88702 14.8486 9.67133 15.1588 9.39351 15.4072C9.11569 15.6557 8.78347 15.8355 8.42354 15.9323C8.06361 16.029 7.68601 16.04 7.32106 15.9644C6.9561 15.8887 6.61398 15.7285 6.32217 15.4967L4.9433 19.0067C4.92973 19.0365 4.92549 19.0698 4.93115 19.1021C4.93682 19.1343 4.95212 19.1642 4.97504 19.1876C4.99796 19.211 5.02743 19.227 5.05958 19.2334C5.09174 19.2398 5.12507 19.2363 5.1552 19.2233L12.6085 16.2975C12.5821 16.275 12.5565 16.2546 12.5318 16.2308ZM10.6932 7.95755C10.9659 7.68484 11.3134 7.49912 11.6916 7.42388C12.0699 7.34864 12.462 7.38726 12.8183 7.53485C13.1746 7.68245 13.4792 7.93238 13.6934 8.25306C13.9077 8.57373 14.022 8.95074 14.022 9.33642C14.022 9.72209 13.9077 10.0991 13.6934 10.4198C13.4792 10.7405 13.1746 10.9904 12.8183 11.138C12.462 11.2856 12.0699 11.3242 11.6916 11.249C11.3134 11.1737 10.9659 10.988 10.6932 10.7153C10.3281 10.3492 10.1231 9.85338 10.1231 9.33642C10.1231 8.81945 10.3281 8.32358 10.6932 7.95755Z" fill="#FFF7F7"/>
<path d="M8.85445 14.6996C8.99536 14.5587 9.10715 14.3915 9.18342 14.2074C9.25968 14.0234 9.29894 13.8261 9.29894 13.6269C9.29894 13.4276 9.25968 13.2303 9.18342 13.0463C9.10715 12.8622 8.99536 12.695 8.85445 12.5541C8.69837 12.3967 8.50934 12.2759 8.30097 12.2003C8.09259 12.1247 7.87005 12.0962 7.64935 12.1169L6.65918 14.6389C6.67651 14.6575 6.69168 14.6822 6.70945 14.6996C6.85028 14.8404 7.01749 14.9522 7.20151 15.0284C7.38553 15.1046 7.58276 15.1439 7.78195 15.1439C7.98113 15.1439 8.17836 15.1046 8.36238 15.0284C8.54641 14.9522 8.71361 14.8404 8.85445 14.6996Z" fill="#FFF7F7"/>
<path d="M12.1675 -0.133789C9.76777 -0.133789 7.42192 0.577819 5.4266 1.91105C3.43128 3.24427 1.87612 5.13924 0.95778 7.35632C0.0394369 9.5734 -0.200844 12.013 0.267324 14.3666C0.735491 16.7203 1.89108 18.8822 3.58796 20.5791C5.28483 22.276 7.44679 23.4316 9.80042 23.8997C12.1541 24.3679 14.5937 24.1276 16.8107 23.2093C19.0278 22.2909 20.9228 20.7358 22.256 18.7405C23.5892 16.7451 24.3009 14.3993 24.3009 11.9995C24.2972 8.78271 23.0177 5.69868 20.743 3.42404C18.4684 1.14939 15.3844 -0.130119 12.1675 -0.133789ZM21.6549 15.4506C21.5252 15.4747 21.3934 15.4869 21.2615 15.487C21.0403 15.4838 20.821 15.4462 20.6115 15.3756C19.9362 17.0637 18.7712 18.5109 17.2663 19.5311C15.7614 20.5512 13.9856 21.0975 12.1675 21.0995C10.2996 21.1038 8.47651 20.5273 6.95062 19.4498L5.47728 20.0292C5.35412 20.0787 5.22264 20.1043 5.08989 20.1046C4.92197 20.1034 4.75691 20.0611 4.60905 19.9815C4.46119 19.9019 4.33501 19.7874 4.24147 19.648C4.14793 19.5085 4.08988 19.3484 4.07235 19.1814C4.05482 19.0144 4.07834 18.8456 4.14089 18.6898L4.71939 17.2164C3.64117 15.6908 3.06391 13.8677 3.06752 11.9995C3.06937 10.1829 3.61459 8.40836 4.63307 6.90408C5.65155 5.3998 7.09672 4.23456 8.78275 3.55821C8.67006 3.20412 8.65034 2.827 8.72547 2.46309C8.8006 2.09917 8.96805 1.7607 9.21175 1.48018C9.45545 1.19967 9.7672 0.986545 10.117 0.861288C10.4669 0.736032 10.8431 0.702855 11.2094 0.764944C11.8282 0.876744 15.0817 1.62121 18.814 5.35351C22.5463 9.08581 23.2903 12.3393 23.4017 12.9529C23.4511 13.2316 23.4452 13.5173 23.3842 13.7937C23.3231 14.0701 23.2082 14.3318 23.046 14.5638C22.8838 14.7957 22.6774 14.9935 22.4387 15.1456C22.2 15.2978 21.9337 15.4014 21.6549 15.4506Z" fill="#FFF7F7"/>
<path d="M11.0585 1.61868C10.9856 1.60613 10.9118 1.59975 10.8379 1.59961C10.5813 1.60208 10.3311 1.68031 10.1188 1.82447C9.90643 1.96864 9.74142 2.17231 9.64443 2.40992C9.54745 2.64753 9.52283 2.9085 9.57364 3.16006C9.62446 3.41162 9.74845 3.64257 9.93006 3.82391C10.113 4.00868 10.3479 4.13325 10.6035 4.18098C10.6225 4.18462 10.6413 4.18939 10.6598 4.19528C11.0931 4.29581 13.5289 4.97918 16.3568 7.81058C19.1848 10.642 19.8712 13.0738 19.9791 13.5306C20.025 13.7972 20.1521 14.0431 20.3431 14.2347C20.4908 14.3849 20.673 14.4967 20.8739 14.5602C21.0747 14.6238 21.288 14.6374 21.4953 14.5996C21.6625 14.5706 21.8225 14.509 21.9659 14.4182C22.1093 14.3274 22.2334 14.2092 22.3311 14.0704C22.4288 13.9316 22.4982 13.7749 22.5353 13.6092C22.5725 13.4436 22.5766 13.2723 22.5474 13.105C22.485 12.7584 21.8251 9.59244 18.2002 5.96761C14.5754 2.34278 11.4082 1.68151 11.0585 1.61868Z" fill="#FFF7F7"/>
</g>
</g>
<defs>
<clipPath id="clip0_1038_8354">
<rect width="24" height="24" fill="white"/>
</clipPath>
<clipPath id="clip1_1038_8354">
<rect width="26" height="26" fill="white" transform="translate(-0.833008 -1)"/>
</clipPath>
</defs>
</svg>
