<svg width="145" height="145" viewBox="0 0 145 145" fill="none" xmlns="http://www.w3.org/2000/svg">
<path d="M21.128 21.1284C-7.04339 49.2997 -7.04339 94.9784 21.128 123.15C49.2993 151.321 94.978 151.321 123.149 123.15C151.321 94.9784 151.321 49.2997 123.149 21.1284C94.978 -7.043 49.2994 -7.043 21.128 21.1284Z" fill="white"/>
<path d="M23.8597 23.8601C-2.80555 50.5253 -2.80302 93.7553 23.8597 120.418C50.5224 147.081 93.7549 147.081 120.418 120.418C147.08 93.7553 147.08 50.5228 120.418 23.8601C93.7549 -2.80264 50.5224 -2.80264 23.8597 23.8601Z" fill="#FEF2E7"/>
<path d="M61.7399 13.3678L62.2074 13.2946C62.5789 13.2364 63.0818 13.1177 63.3724 12.7159C63.4962 12.5466 63.6403 12.2357 63.5695 11.796C63.4886 11.2906 63.2081 11.0607 63.0161 10.9545C62.6421 10.7524 62.1038 10.8105 61.8385 10.8534L61.3583 10.9293L61.7399 13.3678ZM62.1746 9.16286C63.3067 8.98596 64.0724 9.24624 64.5626 9.57981C64.9922 9.88306 65.4926 10.4592 65.6493 11.4448C65.7377 12.0032 65.7276 12.7159 65.2399 13.3653C64.9796 13.7065 64.5828 14.0426 64.1078 14.2397L67.4131 17.449L64.9063 17.8432L61.9547 14.7147L62.5056 18.2223L60.4537 18.5457L59.0587 9.65563L62.1771 9.16539L62.1746 9.16286Z" fill="#FF0049"/>
<path d="M70.8979 10.856C70.5037 11.23 70.0892 11.887 70.0791 12.8826C70.069 13.7065 70.3318 14.3685 70.8802 14.9169C71.4538 15.4754 72.1008 15.6725 72.8007 15.6801C73.7181 15.6927 74.3701 15.3592 74.8072 14.9321C75.161 14.5985 75.6007 13.9718 75.6108 12.9307C75.6209 12.0007 75.252 11.3083 74.8527 10.8989C74.413 10.4592 73.7004 10.1155 72.8791 10.108C72.0957 10.0979 71.3907 10.3733 70.9004 10.8534M76.379 9.5394C77.2205 10.3708 77.7588 11.5661 77.7436 12.9559C77.731 14.1563 77.2837 15.3819 76.3007 16.3144C75.4541 17.1154 74.3144 17.6133 72.8058 17.5956C71.1178 17.5754 69.9806 16.888 69.3134 16.231C68.4593 15.4122 67.9337 14.1891 67.9489 12.87C67.964 11.5762 68.5604 10.2722 69.3766 9.47115C69.9907 8.87225 71.1178 8.16974 72.9119 8.18995C74.3144 8.20764 75.4845 8.64988 76.379 9.5394Z" fill="#FF0049"/>
<path d="M78.537 17.4895L81.8524 8.9987L83.538 9.36511L84.5892 15.1015L87.9173 10.3128L89.6054 10.6767L89.1126 19.7765L87.0809 19.3368L87.5181 13.9365L84.1799 18.7101L83.4698 18.5559L82.4008 12.8322L80.5687 17.9292L78.537 17.4895Z" fill="#FF0049"/>
<path d="M95.9178 19.1472L96.0846 15.9328L93.8709 18.2728L95.9203 19.1447L95.9178 19.1472ZM95.8167 20.8353L92.6883 19.506L91.3919 20.8024L89.4031 19.9558L96.264 13.0949L98.0152 13.8404L97.7575 23.5089L95.7712 22.6648L95.8167 20.8353Z" fill="#FF0049"/>
<path d="M105.526 22.7356L106.132 23.1601C106.365 23.3219 106.782 23.5973 107.244 23.524C107.507 23.4786 107.805 23.3067 108.03 22.9858C108.247 22.6775 108.313 22.3439 108.255 22.0735C108.172 21.6515 107.828 21.3634 107.497 21.1335L106.923 20.7317L105.526 22.7356ZM108.793 19.9634C109.435 20.4133 110.082 20.9945 110.304 21.9244C110.549 22.9175 110.127 23.7085 109.774 24.219C109.124 25.1464 108.409 25.4218 107.931 25.5153C106.928 25.7049 106.115 25.2197 105.594 24.8558L104.555 24.1305L102.746 26.7182L101.043 25.5305L106.195 18.149L108.796 19.966L108.793 19.9634Z" fill="#FF0049"/>
<path d="M114.643 24.6386L113.075 23.2772L107.175 30.0717L108.743 31.4331L114.643 24.6386Z" fill="#FF0049"/>
<path d="M113.347 33.4781L115.967 36.3109L114.681 37.5011L109.743 32.164L117.994 30.4128L115.538 27.7594L116.827 26.5667L121.59 31.7193L113.347 33.4781Z" fill="#FF0049"/>
<path d="M118.613 39.9726L120.789 43.1592L119.341 44.1473L115.237 38.143L123.655 37.6199L121.615 34.6355L123.063 33.6474L127.021 39.4394L118.613 39.9726Z" fill="#FF0049"/>
<path d="M125.11 48.3142L127.364 46.0197L124.155 46.3027L125.11 48.3142ZM123.915 49.5095L122.457 46.4392L120.627 46.5453L119.702 44.5944L129.388 44.0158L130.202 45.7341L123.594 52.7972L122.669 50.8463L123.915 49.5095Z" fill="#FF0049"/>
<path d="M131.238 63.8277L131.294 64.2977C131.339 64.6717 131.44 65.1771 131.832 65.4829C131.996 65.6118 132.302 65.7659 132.744 65.7129C133.255 65.6522 133.492 65.3793 133.604 65.1872C133.818 64.8208 133.78 64.2826 133.745 64.0147L133.687 63.532L131.236 63.8302L131.238 63.8277ZM135.426 64.4064C135.565 65.5461 135.274 66.3017 134.925 66.7768C134.609 67.1937 134.015 67.6764 133.022 67.7951C132.459 67.8634 131.749 67.8255 131.117 67.32C130.783 67.0471 130.465 66.6378 130.283 66.1576L126.957 69.3467L126.652 66.8273L129.884 63.9894L126.359 64.4165L126.108 62.3519L135.044 61.2703L135.423 64.4039L135.426 64.4064Z" fill="#FF0049"/>
<path d="M133.432 73.0665C133.073 72.6572 132.431 72.2225 131.435 72.177C130.614 72.1391 129.939 72.3792 129.376 72.9073C128.797 73.4607 128.577 74.1001 128.544 74.8001C128.501 75.7174 128.81 76.3795 129.219 76.8293C129.54 77.1957 130.152 77.6556 131.19 77.7036C132.123 77.7466 132.825 77.4029 133.247 77.0163C133.7 76.5892 134.069 75.8917 134.106 75.0705C134.142 74.2871 133.892 73.577 133.429 73.0691M134.551 78.5881C133.69 79.3993 132.479 79.8971 131.089 79.8314C129.891 79.7758 128.683 79.2856 127.784 78.2748C127.013 77.4029 126.553 76.2455 126.624 74.7344C126.702 73.0488 127.427 71.9344 128.107 71.29C128.956 70.4662 130.195 69.981 131.516 70.0442C132.81 70.1048 134.091 70.7442 134.862 71.5907C135.441 72.225 136.103 73.3773 136.019 75.169C135.954 76.569 135.469 77.7213 134.549 78.5856" fill="#FF0049"/>
<path d="M126.533 80.4758L134.9 84.0919L134.475 85.7648L128.704 86.6088L133.371 90.1037L132.947 91.7766L123.87 90.9629L124.383 88.9489L129.763 89.5781L125.113 86.0706L125.292 85.3656L131.051 84.5038L126.023 82.4873L126.533 80.4758Z" fill="#FF0049"/>
<path d="M124.248 97.7861L127.455 98.0666L125.194 95.7695L124.248 97.7861ZM122.568 97.6218L124.013 94.5439L122.765 93.1995L123.682 91.2461L130.288 98.3521L129.482 100.073L119.829 99.4665L120.746 97.5131L122.57 97.6243L122.568 97.6218Z" fill="#FF0049"/>
<path d="M120.332 107.247L119.884 107.841C119.712 108.068 119.424 108.473 119.48 108.938C119.518 109.203 119.677 109.509 119.988 109.744C120.291 109.971 120.617 110.05 120.893 110.002C121.317 109.931 121.618 109.6 121.86 109.276L122.282 108.713L120.329 107.245L120.332 107.247ZM122.988 110.611C122.517 111.237 121.914 111.862 120.976 112.051C119.973 112.261 119.199 111.811 118.702 111.44C117.797 110.757 117.547 110.032 117.471 109.552C117.319 108.541 117.832 107.745 118.211 107.24L118.972 106.226L116.448 104.328L117.698 102.668L124.89 108.076L122.985 110.608L122.988 110.611Z" fill="#FF0049"/>
<path d="M119.505 114.806L112.921 108.672L111.506 110.192L118.09 116.325L119.505 114.806Z" fill="#FF0049"/>
<path d="M109.314 114.697L106.393 117.214L105.248 115.887L110.754 111.139L112.217 119.445L114.954 117.082L116.099 118.414L110.787 122.993L109.314 114.697Z" fill="#FF0049"/>
<path d="M102.637 119.731L99.3725 121.793L98.4375 120.312L104.583 116.425L104.806 124.855L107.863 122.925L108.801 124.403L102.87 128.156L102.637 119.731Z" fill="#FF0049"/>
<path d="M94.068 125.925L96.2792 128.262L96.1124 125.043L94.068 125.925ZM92.9157 124.686L96.0391 123.342L95.9987 121.507L97.9799 120.653L98.2098 130.354L96.4611 131.108L89.6407 124.247L91.6219 123.392L92.9157 124.686Z" fill="#FF0049"/>
<path d="M81.62 131.064L81.1525 131.133C80.7759 131.186 80.2756 131.297 79.9799 131.694C79.8536 131.86 79.707 132.169 79.7677 132.608C79.8409 133.116 80.1189 133.349 80.311 133.46C80.6799 133.667 81.2182 133.619 81.486 133.579L81.9687 133.511L81.6225 131.067L81.62 131.064ZM81.1221 135.262C79.9875 135.421 79.2243 135.148 78.7417 134.807C78.3171 134.499 77.8244 133.915 77.6854 132.927C77.6045 132.366 77.6298 131.653 78.1251 131.011C78.3904 130.675 78.7922 130.344 79.2698 130.155L76.0125 126.897L78.5269 126.541L81.4279 129.715L80.9326 126.202L82.9871 125.912L84.2456 134.822L81.1196 135.264L81.1221 135.262Z" fill="#FF0049"/>
<path d="M72.414 133.437C72.8158 133.071 73.2378 132.421 73.2656 131.423C73.2883 130.602 73.0382 129.932 72.4974 129.376C71.9313 128.81 71.292 128.601 70.5895 128.58C69.6722 128.558 69.0151 128.876 68.5729 129.293C68.214 129.622 67.7642 130.243 67.7364 131.282C67.7112 132.212 68.07 132.909 68.4617 133.326C68.8963 133.771 69.6014 134.127 70.4227 134.15C71.206 134.17 71.9136 133.907 72.4115 133.435M66.9126 134.663C66.0863 133.816 65.5632 132.616 65.6036 131.226C65.6365 130.026 66.0989 128.81 67.0971 127.893C67.9538 127.107 69.1036 126.624 70.6122 126.667C72.2978 126.715 73.4248 127.418 74.0818 128.085C74.9233 128.916 75.4287 130.145 75.3934 131.469C75.358 132.763 74.7414 134.056 73.91 134.842C73.2883 135.434 72.1486 136.119 70.3545 136.068C68.9519 136.03 67.7895 135.565 66.9101 134.666" fill="#FF0049"/>
<path d="M64.8833 126.685L61.439 135.123L59.7559 134.734L58.7956 128.982L55.3943 133.718L53.7113 133.324L54.3455 124.234L56.3672 124.704L55.8466 130.097L59.2606 125.379L59.9707 125.543L60.9462 131.284L62.8617 126.215L64.8833 126.685Z" fill="#FF0049"/>
<path d="M47.5277 124.75L47.3104 127.959L49.562 125.652L47.5277 124.75ZM47.6566 123.064L50.7648 124.444L52.0839 123.17L54.0576 124.047L47.0855 130.797L45.3469 130.024L45.7613 120.36L47.7349 121.237L47.6616 123.064H47.6566Z" fill="#FF0049"/>
<path d="M37.9882 121.017L37.3868 120.582C37.1568 120.418 36.7424 120.135 36.2825 120.201C36.0171 120.244 35.7164 120.408 35.489 120.726C35.2691 121.032 35.1958 121.363 35.2489 121.634C35.3272 122.056 35.6633 122.351 35.9918 122.584L36.5604 122.996L37.9907 121.014L37.9882 121.017ZM34.6803 123.739C34.046 123.281 33.4067 122.687 33.202 121.755C32.972 120.757 33.4067 119.973 33.7706 119.468C34.4327 118.548 35.1554 118.285 35.6355 118.199C36.6413 118.027 37.4474 118.525 37.9604 118.897L38.9889 119.637L40.8362 117.077L42.5217 118.293L37.2554 125.591L34.6828 123.736L34.6803 123.739Z" fill="#FF0049"/>
<path d="M36.4225 113.66L34.8758 112.275L28.872 118.978L30.4186 120.364L36.4225 113.66Z" fill="#FF0049"/>
<path d="M30.3237 110.148L27.7487 107.275L29.0551 106.105L33.9121 111.518L25.6335 113.14L28.0494 115.834L26.7429 117.004L22.0578 111.783L30.3237 110.148Z" fill="#FF0049"/>
<path d="M25.166 103.575L23.0383 100.356L24.5014 99.3881L28.5118 105.455L20.0842 105.847L22.078 108.862L20.6148 109.83L16.7485 103.977L25.166 103.575Z" fill="#FF0049"/>
<path d="M18.798 95.1249L16.506 97.3815L19.7204 97.1491L18.798 95.1249ZM20.0136 93.9498L21.4211 97.0455L23.2532 96.9671L24.1478 98.9331L14.4541 99.3577L13.6656 97.6241L20.3875 90.6698L21.2821 92.6358L20.0136 93.9549V93.9498Z" fill="#FF0049"/>
<path d="M13.4128 82.7855L13.337 82.3205C13.2763 81.9465 13.155 81.4462 12.7533 81.1556C12.5839 81.0317 12.2731 80.8928 11.8334 80.9635C11.328 81.0444 11.1006 81.3274 10.9944 81.5245C10.7973 81.8985 10.8554 82.4368 10.8984 82.7021L10.9742 83.1822L13.4103 82.788L13.4128 82.7855ZM9.20277 82.3711C9.02083 81.239 9.27858 80.4707 9.60962 79.983C9.91033 79.5509 10.484 79.048 11.4695 78.8913C12.0305 78.8004 12.7406 78.8079 13.3951 79.2906C13.7363 79.5509 14.0749 79.9451 14.2745 80.4177L17.4712 77.0997L17.8755 79.6065L14.7597 82.5707L18.2622 82.0046L18.5932 84.0541L9.70818 85.4894L9.20529 82.3736L9.20277 82.3711Z" fill="#FF0049"/>
<path d="M10.858 73.6301C11.232 74.0243 11.889 74.4337 12.8897 74.4438C13.7135 74.4488 14.3756 74.186 14.9214 73.6351C15.4774 73.0589 15.672 72.4146 15.677 71.712C15.6846 70.7947 15.3536 70.1453 14.924 69.7106C14.5904 69.3568 13.9587 68.9222 12.9175 68.9121C11.9876 68.907 11.2952 69.276 10.8883 69.6778C10.4511 70.12 10.11 70.8301 10.1049 71.6539C10.0999 72.4373 10.3778 73.1398 10.858 73.6301ZM9.52622 68.154C10.3551 67.3099 11.5453 66.7666 12.9377 66.7793C14.1381 66.7869 15.3637 67.2291 16.2987 68.2096C17.1023 69.0536 17.6052 70.1882 17.5925 71.7019C17.5799 73.3875 16.8951 74.5322 16.2431 75.1994C15.4269 76.056 14.2088 76.5867 12.8846 76.5766C11.5908 76.5665 10.2843 75.9777 9.48074 75.1589C8.87931 74.5474 8.17173 73.4203 8.1869 71.6261C8.19701 70.2211 8.63923 69.0511 9.52369 68.1565" fill="#FF0049"/>
<path d="M17.4636 65.9581L8.96017 62.6806L9.31648 60.99L15.0503 59.916L10.2464 56.6081L10.6053 54.92L19.7076 55.3749L19.278 57.4066L13.8752 56.9922L18.6614 60.3127L18.5098 61.0254L12.7911 62.1145L17.8932 63.9264L17.4636 65.9581Z" fill="#FF0049"/>
<path d="M19.053 48.5695L15.8386 48.4179L18.1913 50.624L19.0555 48.572L19.053 48.5695ZM20.741 48.6655L19.4219 51.799L20.7183 53.0954L19.8844 55.0817L12.9982 48.246L13.7361 46.4923L23.4071 46.7121L22.5706 48.7009L20.7436 48.663L20.741 48.6655Z" fill="#FF0049"/>
<path d="M22.5935 38.9592L23.0155 38.3502C23.1773 38.1177 23.4502 37.6982 23.3744 37.2383C23.3289 36.9754 23.1571 36.6773 22.8336 36.4549C22.5228 36.2401 22.1917 36.1718 21.9188 36.2325C21.4993 36.3184 21.2112 36.6621 20.9813 36.9931L20.582 37.5693L22.5885 38.9592L22.5935 38.9592ZM19.8087 35.7043C20.2535 35.0625 20.8322 34.413 21.7621 34.1856C22.7552 33.9354 23.5487 34.3549 24.0592 34.7087C24.9917 35.3531 25.2671 36.0682 25.3632 36.5484C25.5552 37.5491 25.0725 38.3653 24.7137 38.8859L23.9935 39.9295L26.5888 41.7263L25.4061 43.4345L18.007 38.3148L19.8113 35.7069L19.8087 35.7043Z" fill="#FF0049"/>
<path d="M31.2871 35.6825L24.4679 29.8108L23.1131 31.3843L29.9323 37.2559L31.2871 35.6825Z" fill="#FF0049"/>
<path d="M33.3106 31.0875L36.1307 28.4544L37.3286 29.7381L32.0092 34.6987L30.2251 26.4555L27.5793 28.9194L26.384 27.6381L31.5138 22.8519L33.3106 31.0875Z" fill="#FF0049"/>
<path d="M39.785 25.7957L42.9615 23.6048L43.9572 25.0503L37.9706 29.1769L37.4122 20.7594L34.4353 22.8164L33.4397 21.3709L39.2165 17.3883L39.785 25.7957Z" fill="#FF0049"/>
<path d="M48.1016 19.2634L45.7994 17.0169L46.0976 20.2262L48.1066 19.2634L48.1016 19.2634ZM49.3019 20.4536L46.2366 21.9218L46.3528 23.7514L44.4045 24.6839L43.7854 15.0028L45.5012 14.1815L52.5896 20.7594L50.6412 21.6919L49.2994 20.4511L49.3019 20.4536Z" fill="#FF0049"/>
<path d="M63.6503 109.34C63.3268 109.501 63.0387 109.557 62.7709 109.511C62.7405 109.506 62.7127 109.499 62.6824 109.494C62.1012 109.342 61.2117 108.645 59.9835 104.601C55.7684 107.796 50.5274 111.788 49.4332 110.694C47.879 109.14 59.2658 99.335 57.9139 91.5391C58.0099 91.5543 62.0911 91.1171 62.2831 87.2457C62.4575 83.67 55.9883 81.1783 50.5274 86.6392C43.1257 94.0409 33.6695 103.376 31.8324 101.539C29.7526 99.4589 37.2655 92.7142 46.1202 83.8696C56.6832 73.3217 54.884 71.3507 54.1082 70.4889C52.6526 68.8767 44.1011 77.3726 42.6178 75.8892C40.4041 73.6755 55.589 61.1895 54.2295 46.9218C54.0854 45.393 53.9768 43.8692 53.6988 42.4035C53.1883 39.6996 52.7032 37.1422 54.5251 35.3C55.8721 33.9379 58.2449 33.0206 61.5857 32.5759C64.5651 32.1791 68.2924 32.1715 72.3584 32.5582C84.1571 33.6827 97.9168 38.1783 103.946 42.1306C107.027 44.1497 110.595 46.0349 110.714 51.0106C110.304 56.7469 106.054 55.5694 104.947 58.3946C103.881 61.1238 101.849 64.0855 100.214 66.4685C99.1829 67.9746 98.2908 69.2709 97.889 70.1478C97.3786 71.2496 94.1692 77.1376 90.7855 82.6996C88.8498 85.8836 87.182 88.441 85.825 90.2933C83.5228 93.4395 70.9079 107.404 63.6528 109.342" fill="#FF0049"/>
<path d="M98.7786 60.2065C99.3902 57.3408 100.939 55.5795 102.311 54.0254C102.322 54.0152 102.332 54.0051 102.339 53.9976C103.201 53.0196 104.795 53.7954 104.571 55.0766C104.477 55.6098 104.341 56.1253 104.151 56.613C103.123 59.2386 101.126 62.1548 99.5191 64.4949C98.4628 66.0363 97.5505 67.3681 97.1133 68.3107C96.5978 69.4327 93.343 75.3914 89.9189 81.004C87.9655 84.2057 86.2951 86.7454 84.9558 88.5497C82.8103 91.4381 76.8844 97.7734 72.6491 101.857C70.3925 104.033 64.2442 108.488 63.6529 107.796C62.8922 106.909 70.2838 101.074 77.0512 93.9676C79.2927 91.615 75.4339 95.2109 74.7743 94.6019C74.2032 94.0712 78.7721 89.8258 80.3591 88.254C83.3713 85.2671 88.5972 81.1935 87.8265 80.2155C86.9294 79.0809 82.7876 84.5317 81.9183 83.5158C80.9252 82.3559 86.9294 77.8477 89.325 74.2896C95.6603 64.8916 98.5689 61.1895 98.7786 60.2014" fill="white"/>
<path d="M67.8605 83.3766C67.6937 85.8683 69.2478 87.9784 71.3326 88.082C73.4174 88.1856 75.2445 86.2524 75.4113 83.7608C75.578 81.2691 74.0239 79.159 71.9391 79.0554C69.8518 78.9493 68.0273 80.885 67.8605 83.3766Z" fill="white"/>
<path d="M77.6627 66.8474C77.496 69.339 79.0501 71.4491 81.1349 71.5527C83.2222 71.6589 85.0467 69.7232 85.2135 67.2315C85.3803 64.7398 83.8262 62.6298 81.7414 62.5262C79.654 62.42 77.8295 64.3557 77.6627 66.8474Z" fill="white"/>
<path d="M62.7103 69.3769C62.5435 71.8686 64.0976 73.9786 66.1824 74.0822C68.2698 74.1884 70.0943 72.2527 70.2611 69.761C70.4279 67.2694 68.8737 65.1593 66.7889 65.0557C64.7016 64.9495 62.8771 66.8853 62.7103 69.3769Z" fill="white"/>
<path d="M58.8616 52.3171C58.6442 55.5618 60.6659 58.3011 63.3799 58.4375C66.0939 58.574 68.4693 56.0571 68.6867 52.8124C68.904 49.5677 66.8823 46.8284 64.1683 46.6919C61.4543 46.5554 59.0789 49.0724 58.8616 52.3171Z" fill="white"/>
<path d="M71.618 49.5322C71.4512 52.0238 73.0078 54.1314 75.0901 54.2375C77.1724 54.3436 79.002 52.4079 79.1687 49.9163C79.3355 47.4246 77.7814 45.3146 75.6966 45.2109C73.6093 45.1048 71.7847 47.0405 71.618 49.5322Z" fill="white"/>
<path d="M107.105 53.3658C107.105 53.3658 110.112 50.3031 109.109 48.5821C108.106 46.8612 103.651 48.9663 104.944 51.4175C106.241 53.8662 107.103 53.3683 107.103 53.3683" fill="white"/>
<path d="M89.9187 48.203C89.9187 48.203 82.9492 56.3704 85.1906 58.7079C88.1649 61.8136 94.063 51.9936 93.7674 49.9997C93.6587 49.2593 88.5086 56.9971 87.6797 54.8794C86.8509 52.7618 89.9187 48.203 89.9187 48.203Z" fill="white"/>
<path d="M65.4521 93.5986C65.4521 93.5986 62.3539 96.8029 63.2232 97.8289C64.3756 99.1935 67.0744 95.2766 67.0037 94.4427C66.9784 94.1344 64.6434 97.2072 64.3553 96.3076C64.0673 95.408 65.4546 93.6012 65.4546 93.6012" fill="white"/>
</svg>
